<?xml version="1.0" encoding="iso-8859-1"?>
<!-- Generator: Adobe Illustrator 19.0.0, SVG Export Plug-In . SVG Version: 6.00 Build 0)  -->
<svg version="1.1" id="Layer_1" xmlns="http://www.w3.org/2000/svg" xmlns:xlink="http://www.w3.org/1999/xlink" x="0px" y="0px"
	 viewBox="0 0 472.258 472.258" style="enable-background:new 0 0 472.258 472.258;" xml:space="preserve">
<g>
	<g>
		<circle cx="213.333" cy="332.129" r="64"/>
	</g>
</g>
<g>
	<g>
		<path d="M320,65.462H128c-5.899,0-10.667,4.768-10.667,10.667S122.101,86.796,128,86.796h192c5.899,0,10.667-4.768,10.667-10.667
			S325.899,65.462,320,65.462z"/>
	</g>
</g>
<g>
	<g>
		<path d="M213.333,118.796h-42.667c-5.899,0-10.667,4.768-10.667,10.667c0,5.899,4.768,10.667,10.667,10.667h42.667
			c5.899,0,10.667-4.768,10.667-10.667C224,123.564,219.232,118.796,213.333,118.796z"/>
	</g>
</g>
<g>
	<g>
		<path d="M320,118.796h-64c-5.899,0-10.667,4.768-10.667,10.667c0,5.899,4.768,10.667,10.667,10.667h64
			c5.899,0,10.667-4.768,10.667-10.667C330.667,123.564,325.899,118.796,320,118.796z"/>
	</g>
</g>
<g>
	<g>
		<path d="M466.027,259.873c-6.091-8.309-15.499-13.077-25.803-13.077H416v-32c0-17.643-14.357-32-32-32h-10.667V12.129
			c0-5.899-4.768-10.667-10.667-10.667H85.333c-5.899,0-10.667,4.768-10.667,10.667v117.333H32c-17.643,0-32,14.357-32,32v277.333
			c0,17.643,14.357,32,32,32h373.333c0,0,0,0,0.011,0c1.323,0,2.571-0.309,3.765-0.757c0.405-0.149,0.736-0.373,1.12-0.576
			c0.747-0.395,1.429-0.832,2.059-1.387c0.363-0.309,0.672-0.629,0.992-0.992c0.523-0.597,0.949-1.269,1.333-1.984
			c0.224-0.427,0.469-0.811,0.64-1.269c0.064-0.171,0.192-0.309,0.245-0.491l55.253-174.901
			C473.845,278.593,472.128,268.182,466.027,259.873z M96,22.796h256v160H149.333v-21.333c0-17.643-14.357-32-32-32H96V22.796z
			 M394.667,257.462v192H32c-5.888,0-10.667-4.779-10.667-10.667V161.462c0-5.888,4.779-10.667,10.667-10.667h85.333
			c5.888,0,10.667,4.779,10.667,10.667v32c0,5.899,4.768,10.667,10.667,10.667h224H384c5.888,0,10.667,4.779,10.667,10.667V257.462z
			 M450.411,282.017L416,390.945V268.129h24.224c3.424,0,6.56,1.579,8.597,4.352C450.869,275.265,451.435,278.732,450.411,282.017z"
			/>
	</g>
</g>
<g>
</g>
<g>
</g>
<g>
</g>
<g>
</g>
<g>
</g>
<g>
</g>
<g>
</g>
<g>
</g>
<g>
</g>
<g>
</g>
<g>
</g>
<g>
</g>
<g>
</g>
<g>
</g>
<g>
</g>
</svg>
