<svg id="Capa_1" enable-background="new 0 0 512 512" height="512" viewBox="0 0 512 512" width="512" xmlns="http://www.w3.org/2000/svg"><g><path d="m247.986 408.822h-216.438c-9.125 0-16.548-7.423-16.548-16.548v-273.064h385.807v120.756c0 4.143 3.358 7.5 7.5 7.5s7.5-3.357 7.5-7.5v-168.337c0-17.396-14.152-31.548-31.548-31.548h-8.533v-8.532c0-12.976-10.557-23.532-23.532-23.532s-23.532 10.556-23.532 23.532v8.532h-216.953c-4.142 0-7.5 3.358-7.5 7.5s3.358 7.5 7.5 7.5h216.952v8.533c0 12.976 10.557 23.532 23.532 23.532s23.532-10.557 23.532-23.532v-8.533h8.533c9.125 0 16.548 7.423 16.548 16.548v32.581h-385.806v-32.581c0-9.125 7.423-16.548 16.548-16.548h8.532v8.533c0 12.976 10.557 23.532 23.532 23.532s23.532-10.557 23.532-23.532v-32.066c0-12.976-10.557-23.532-23.532-23.532s-23.531 10.556-23.531 23.532v8.532h-8.532c-17.397.001-31.549 14.153-31.549 31.549v320.646c0 17.396 14.152 31.548 31.548 31.548h216.438c4.142 0 7.5-3.357 7.5-7.5 0-4.142-3.358-7.501-7.5-7.501zm104.207-336.676c-4.705 0-8.532-3.828-8.532-8.532v-32.066c0-4.705 3.828-8.532 8.532-8.532s8.532 3.828 8.532 8.532v32.065c.001 4.704-3.827 8.533-8.532 8.533zm-297.112-40.598c0-4.705 3.828-8.532 8.532-8.532s8.532 3.828 8.532 8.532v32.065c0 4.704-3.828 8.532-8.532 8.532s-8.532-3.828-8.532-8.532z"/><path d="m392.274 264.532c-66.017 0-119.726 53.709-119.726 119.726s53.709 119.726 119.726 119.726 119.726-53.709 119.726-119.726-53.708-119.726-119.726-119.726zm0 224.452c-57.746 0-104.726-46.98-104.726-104.726s46.98-104.726 104.726-104.726 104.726 46.98 104.726 104.726-46.979 104.726-104.726 104.726z"/><path d="m87.661 160.322c-12.976 0-23.532 10.557-23.532 23.532 0 12.976 10.557 23.533 23.532 23.533s23.532-10.557 23.532-23.533c0-12.975-10.556-23.532-23.532-23.532zm0 32.065c-4.705 0-8.532-3.828-8.532-8.533 0-4.704 3.828-8.532 8.532-8.532s8.532 3.828 8.532 8.532c0 4.706-3.827 8.533-8.532 8.533z"/><path d="m87.661 240.484c-12.976 0-23.532 10.557-23.532 23.532s10.557 23.532 23.532 23.532 23.532-10.557 23.532-23.532-10.556-23.532-23.532-23.532zm0 32.064c-4.705 0-8.532-3.828-8.532-8.532s3.828-8.532 8.532-8.532 8.532 3.828 8.532 8.532-3.827 8.532-8.532 8.532z"/><path d="m87.661 320.646c-12.976 0-23.532 10.557-23.532 23.532s10.557 23.532 23.532 23.532 23.532-10.557 23.532-23.532-10.556-23.532-23.532-23.532zm0 32.064c-4.705 0-8.532-3.828-8.532-8.532 0-4.705 3.828-8.532 8.532-8.532s8.532 3.827 8.532 8.532c0 4.704-3.827 8.532-8.532 8.532z"/><path d="m183.855 336.678h-40.081c-4.142 0-7.5 3.357-7.5 7.5 0 4.142 3.358 7.5 7.5 7.5h40.081c4.142 0 7.5-3.358 7.5-7.5 0-4.143-3.358-7.5-7.5-7.5z"/><path d="m183.855 256.516h-40.081c-4.142 0-7.5 3.358-7.5 7.5s3.358 7.5 7.5 7.5h40.081c4.142 0 7.5-3.358 7.5-7.5s-3.358-7.5-7.5-7.5z"/><path d="m183.855 176.354h-40.081c-4.142 0-7.5 3.358-7.5 7.5 0 4.143 3.358 7.5 7.5 7.5h40.081c4.142 0 7.5-3.357 7.5-7.5 0-4.141-3.358-7.5-7.5-7.5z"/><path d="m247.984 160.322c-12.976 0-23.532 10.557-23.532 23.532 0 12.976 10.557 23.533 23.532 23.533s23.532-10.557 23.532-23.533c0-12.975-10.557-23.532-23.532-23.532zm0 32.065c-4.705 0-8.532-3.828-8.532-8.533 0-4.704 3.828-8.532 8.532-8.532s8.532 3.828 8.532 8.532c0 4.706-3.828 8.533-8.532 8.533z"/><path d="m247.984 240.484c-12.976 0-23.532 10.557-23.532 23.532s10.557 23.532 23.532 23.532 23.532-10.557 23.532-23.532-10.557-23.532-23.532-23.532zm0 32.064c-4.705 0-8.532-3.828-8.532-8.532s3.828-8.532 8.532-8.532 8.532 3.828 8.532 8.532-3.828 8.532-8.532 8.532z"/><path d="m304.097 256.516c-4.142 0-7.5 3.358-7.5 7.5s3.358 7.5 7.5 7.5h8.016c4.142 0 7.5-3.358 7.5-7.5s-3.358-7.5-7.5-7.5z"/><path d="m351.677 183.854c0-4.142-3.358-7.5-7.5-7.5h-40.081c-4.142 0-7.5 3.358-7.5 7.5 0 4.143 3.358 7.5 7.5 7.5h40.081c4.142 0 7.5-3.357 7.5-7.5z"/><path d="m441.666 334.866c-2.929-2.929-7.678-2.929-10.606 0l-38.785 38.785-38.785-38.785c-2.929-2.929-7.678-2.929-10.606 0-2.929 2.929-2.929 7.678 0 10.606l38.785 38.785-38.785 38.786c-2.929 2.929-2.929 7.677 0 10.606 1.464 1.464 3.384 2.197 5.303 2.197s3.839-.732 5.303-2.197l38.785-38.786 38.785 38.786c1.464 1.464 3.384 2.197 5.303 2.197s3.839-.732 5.303-2.197c2.929-2.929 2.929-7.677 0-10.606l-38.785-38.786 38.785-38.785c2.929-2.928 2.929-7.677 0-10.606z"/></g></svg>